# xmcd
#
# Track frame offsets:
#	150
#	20058
#	37883
#	54231
#	77514
#	96399
#	112064
#	129071
#	147089
#	167764
#	183802
#	203304
#	228601
#	245921
#	266253
#	284378
#	306233
#	323496
#
# Disc length: 4610 seconds
#
# Revision: 1
# Processed by: cddbd v1.5.1PL2 Copyright (c) Steve Scherf et al.
# Submitted via: EasyCDDAExtractor 5.0.7
#
DISCID=eb120012
DTITLE=劉德華 - 繼續談情 - Disc 2
DYEAR=1900
DGENRE=
TTITLE0=都怪我
TTITLE1=心藍
TTITLE2=男兒志
TTITLE3=男人哭吧哭吧不是罪
TTITLE4=我的心只我容納你
TTITLE5=愛情新活力
TTITLE6=今天
TTITLE7=笨小孩
TTITLE8=天意
TTITLE9=心只有妳
TTITLE10=冰雨
TTITLE11=孤星淚\
TTITLE12=一起走過的日子
TTITLE13=忘情水
TTITLE14=不需要愛情
TTITLE15=愛你一萬年
TTITLE16=來生緣
TTITLE17=男人的眼淚\
EXTD=
EXTT0=
EXTT1=
EXTT2=
EXTT3=
EXTT4=
EXTT5=
EXTT6=
EXTT7=
EXTT8=
EXTT9=
EXTT10=
EXTT11=
EXTT12=
EXTT13=
EXTT14=
EXTT15=
EXTT16=
EXTT17=
PLAYORDER=
